<svg width="300" height="200" viewBox="-150 -100 300 200" xmlns="http://www.w3.org/2000/svg">

  <style>
    #n0,
    #n1,
    #n2,
    #n3,
    #n4,
    #n5,
    #n6,
    #n7,
    #n8,
    #n9 {
      font-family: sans-serif;
      font-size: 12px;
      font-weight: bold;
      fill: black;
    }

    #wonder {
      font-family: sans-serif font-size: 20px;
      font-weight: bold;
      fill: transparent;
      stroke: ghostwhite;
      stroke-width: 0.5;
    }

    .numbr {
      animation-name: pouring;
      animation-duration: inherit;
      animation-iteration-count: infinite;
      animation-timing-function: linear;
    }

    .numbr.transp {
      opacity: 0.7;
    }

    .numbr.slow {
      animation-duration: 5s;
    }

    .numbr.fast {
      animation-duration: 3s;
    }

    .scroll {
      animation-name: scrolling;
      animation-duration: 5s;
      animation-iteration-count: infinite;
      animation-timing-function: linear;
      animation-direction: reverse;
    }

    .rabbit-stroke {
      stroke: none;
    }

    @keyframes pouring {
      from {
        transform: translateY(-150px);
      }

      to {
        transform: translateY(200px);
      }
    }

    @keyframes scrolling {
      from {
        transform: translate(-350px, 0px);
      }

      to {
        transform: translate(300px, 0px);
      }
    }
  </style>

  <defs>
    <!-- Rabbit styling -->
    <radialGradient id="shadeBody" cx="10%" cy="70%" r="100%">
      <stop offset="0%" stop-color="white" />
      <stop offset="40%" stop-color="white" />
      <stop offset="100%" stop-color="lightgray" />
    </radialGradient>
    <radialGradient id="shadeHead" cx="75%" cy="75%" r="100%">
      <stop offset="0%" stop-color="white" />
      <stop offset="40%" stop-color="white" />
      <stop offset="100%" stop-color="lightgray" />
    </radialGradient>
    <radialGradient id="shadeEar-l" cx="50%" cy="10%" r="100%">
      <stop offset="0%" stop-color="white" />
      <stop offset="40%" stop-color="white" />
      <stop offset="100%" stop-color="#dddddd" />
    </radialGradient>
    <radialGradient id="shadePaw-l" cx="50%" cy="90%" r="100%">
      <stop offset="0%" stop-color="white" />
      <stop offset="40%" stop-color="white" />
      <stop offset="100%" stop-color="lightgray" />
    </radialGradient>

    <g id="mannikin">
      <circle cx="0" cy="-50" r="30" fill="floralwhite" />
      <circle cx="-12" cy="-55" r="3" fill="black" />
      <circle cx="12" cy="-55" r="3" fill="black" />
      <rect x="-10" y="-40" width="20" height="5" rx="2" fill="none" stroke="black" stroke-width="2px" />
      <line x1="-40" y1="-10" x2="40" y2="-10" stroke="#545454" stroke-width="35px" stroke-linecap="round" />
      <line x1="-25" y1="50" x2="0" y2="-15" stroke="#545454" stroke-width="35px" stroke-linecap="round" />
      <line x1="25" y1="50" x2="0" y2="-15" stroke="#545454" stroke-width="35px" stroke-linecap="round" />
      <circle cx="0" cy="-10" r="5" fill="white" />
      <circle cx="0" cy="10" r="5" fill="white" />
    </g>

    <g id="wimmin">
      <circle cx="0" cy="-50" r="30" fill="floralwhite" />
      <circle cx="-12" cy="-55" r="3" fill="black" />
      <circle cx="12" cy="-55" r="3" fill="black" />
      <rect x="-10" y="-40" width="20" height="5" rx="2" fill="none" stroke="black" stroke-width="2px" />
      <line x1="-40" y1="-10" x2="40" y2="-10" stroke="#545454" stroke-width="35px" stroke-linecap="round" />
      <line x1="-25" y1="50" x2="0" y2="-15" stroke="#545454" stroke-width="35px" stroke-linecap="round" />
      <line x1="25" y1="50" x2="0" y2="-15" stroke="#545454" stroke-width="35px" stroke-linecap="round" />
      <circle cx="0" cy="35" r="35" fill="#545454" />
      <circle cx="0" cy="-10" r="5" fill="white" />
      <circle cx="0" cy="10" r="5" fill="white" />
    </g>

    <g id="rabbit" transform="translate(0 0)">
      <ellipse id="ear-r" rx="30" ry="180" cx="560" cy="220" fill="#dddddd" class="rabbit-stroke" transform="rotate(106 560 220)" />
      <ellipse id="tail" rx="35" ry="95" cx="595" cy="675" fill="#dddddd" class="rabbit-stroke" transform="rotate(70 595 675)" />
      <ellipse id="paw-r" rx="45" ry="90" cx="300" cy="680" fill="white" class="rabbit-stroke" transform="rotate(70 300 680)" />
      <ellipse id="body" rx="240" ry="155" cx="370" cy="515" transform="rotate(51 370 515)" fill="url(#shadeBody)" class="rabbit-stroke" />
      <ellipse id="head" rx="170" ry="95" cx="270" cy="245" transform="rotate(168 270 245)" fill="url(#shadeHead)" class="rabbit-stroke" />
      <ellipse id="ear-l" rx="50" ry="185" cx="550" cy="350" fill="url(#shadeEar-l)" class="rabbit-stroke" transform="rotate(137 550 350)" />
      <ellipse id="paw-l" rx="45" ry="90" cx="365" cy="690" fill="url(#shadePaw-l)" class="rabbit-stroke" transform="rotate(74 365 690)" />
      <circle id="I" r="35" cx="275" cy="225" fill="white" stroke="black" />
      <circle id="J" r="15" cx="115" cy="260" fill="black" class="rabbit-stroke" />
      <circle id="K" r="15" cx="295" cy="225" fill="black" class="rabbit-stroke" />
      <text x="110" y="290" fill="gray" stroke="gray" font-size="60" font-family="sans-serif" rotate="70">Y</text>            
    </g>

    <!-- <g id="rabbit" transform="translate(-400 -120)">
      <path
        d="M723.041 444.1C725.841 440.6 726.941 436.4 727.681 431.532 726.282 427.053 723.816 422.835 720.267 419.287L695.699 443.855C701.241 453.8 716.249 452.59 723.041 444.1Z"
        fill="#F2F2F2" />
      <path
        d="M551.801 279.86C545.906 283.773 538.96 286 531.62 286L529.975 286C529.676 286 529.383 286.018 529.095 286.052 527.016 286.3 524.397 289.597 523.674 292.367 523.074 294.667 523.441 298.634 523.661 299.215 528.304 311.447 539.092 320.658 552.295 322.946 561.574 321.8 568.774 309.97 568.774 301.267 568.775 292.34 562.108 279.666 551.801 279.86Z"
        fill="#D2D2D2" />
      <path
        d="M536.902 293.906C536.902 297.996 533.586 301.312 529.496 301.312 525.406 301.312 522.09 297.996 522.09 293.906 522.09 289.816 525.406 286.5 529.496 286.5 533.586 286.5 536.902 289.816 536.902 293.906Z"
        fill="#505050" />
      <path
        d="M678.372 264.625C644.953 254.516 615.299 248.669 600.886 248.808 599.197 248.592 597.476 248.48 595.726 248.503 582.128 248.682 570.276 256.097 563.843 267.072 560.79 272.282 556.651 276.641 551.801 279.86 558.492 284.756 562.841 292.662 562.841 301.589 562.841 310.285 558.713 318.013 552.313 322.932 552.315 322.94 552.315 322.941 552.317 322.95 554.062 323.251 555.85 323.425 557.669 323.476L557.669 323.517C561.441 329 573.041 348.6 573.041 355 573.041 358.692 571.841 366.361 571.841 366.361L571.841 422.544C571.841 431.366 566.948 439.604 558.98 443.39 548.847 448.205 541.841 458.535 541.841 470.501L553.85 470.501C553.85 470.501 558.141 468.401 569.441 468.401 580.741 468.401 584.841 470.501 584.841 470.501L671.201 470.501C677.859 470.501 684.086 467.212 687.841 461.714 694.115 467.839 703.385 469.878 711.579 466.756 714.962 465.466 718.176 463.805 720.267 461.714 728.429 453.552 730.898 441.859 727.687 431.553 727.679 431.552 727.677 431.552 727.669 431.55 726.622 433.092 725.421 434.56 724.054 435.927 716.662 443.319 706.372 446.045 696.841 444.108L696.841 425.5 696.841 422.153C696.841 370.684 658.589 328.157 608.964 321.433 619.496 317.754 627.852 309.446 631.598 298.947 636.415 305.219 641.974 311.864 648.154 318.671 663.6 325.8 687.661 336.086 698.2 349.2 721.933 378.733 731.991 381.46 732.342 381.429 733.834 381.297 735.03 380.833 735.882 379.981 743.35 372.512 721.944 338.997 688.068 305.123 682.077 299.132 676.101 293.541 670.275 288.421 670.55 288.505 673.76 289.474 675.081 289.864 719.177 302.874 755.809 308.212 757.76 301.765 759.769 295.123 724.226 278.496 678.372 264.625Z"
        fill="#737373" />
      <path
        d="M601.203 443.809C601.24 443.839 601.279 443.867 601.317 443.896 602.981 442.941 604.807 442.149 606.842 441.587L606.842 425.5C606.842 404.16 621.697 386.29 641.63 381.664 633.479 373.313 622.707 367.533 610.642 365.658 610.639 365.658 610.637 365.657 610.634 365.657 609.851 365.535 606.358 365.017 601.901 365.006 597.487 364.995 593.195 365.552 589.083 366.545 590.217 363.237 590.842 359.693 590.842 356.001 590.842 355.44 590.828 354.882 590.8 354.329 590.042 339.373 579.173 327.084 564.892 324.162 562.776 323.729 560.586 323.502 558.342 323.502 558.335 323.502 558.329 323.502 558.322 323.502 558.104 323.503 557.889 323.514 557.672 323.518L557.672 352.986C557.672 363.276 559.012 373.256 561.517 382.756 561.992 384.576 562.512 386.371 563.077 388.156 567.555 402.319 574.672 415.308 583.842 426.556L583.842 440.5C567.273 440.5 553.842 453.931 553.842 470.5 553.842 470.5 584.522 470.5 584.843 470.5 584.852 458.86 591.505 448.772 601.203 443.809Z"
        fill="#D2D2D2" />
      <path
        d="M560.841 471.5C560.289 471.5 559.841 471.052 559.841 470.5L559.841 470.244C559.841 465.023 561.075 459.796 563.409 455.127L563.946 454.053C564.193 453.559 564.794 453.358 565.288 453.606 565.782 453.853 565.982 454.454 565.735 454.948L565.198 456.022C563.002 460.415 561.841 465.333 561.841 470.245L561.841 470.501C561.841 471.052 561.394 471.5 560.841 471.5Z"
        fill="#737373" />
      <path
        d="M566.841 471.5C566.289 471.5 565.841 471.052 565.841 470.5L565.841 470.244C565.841 465.023 567.075 459.796 569.409 455.127L569.946 454.053C570.193 453.559 570.795 453.358 571.288 453.606 571.782 453.853 571.982 454.454 571.735 454.948L571.198 456.022C569.002 460.415 567.841 465.333 567.841 470.245L567.841 470.501C567.841 471.052 567.394 471.5 566.841 471.5Z"
        fill="#737373" />
      <path
        d="M591.841 471.5C591.289 471.5 590.841 471.052 590.841 470.5L590.841 470.244C590.841 465.023 592.075 459.796 594.409 455.127L594.946 454.053C595.193 453.559 595.795 453.358 596.288 453.606 596.782 453.853 596.982 454.454 596.735 454.948L596.198 456.022C594.002 460.415 592.841 465.333 592.841 470.245L592.841 470.501C592.841 471.052 592.394 471.5 591.841 471.5Z"
        fill="#505050" />
      <path
        d="M597.841 471.5C597.289 471.5 596.841 471.052 596.841 470.5L596.841 470.244C596.841 465.023 598.075 459.796 600.409 455.127L600.946 454.053C601.193 453.559 601.794 453.358 602.288 453.606 602.782 453.853 602.982 454.454 602.735 454.948L602.198 456.022C600.002 460.415 598.841 465.333 598.841 470.245L598.841 470.501C598.841 471.052 598.394 471.5 597.841 471.5Z"
        fill="#505050" />
      <path
        d="M598.841 283.125C598.841 291.064 592.405 297.5 584.466 297.5 576.527 297.5 570.091 291.064 570.091 283.125 570.091 275.186 576.527 268.75 584.466 268.75 592.405 268.75 598.841 275.186 598.841 283.125Z"
        fill="#FFFFFF" />
      <path
        d="M596.583 277.172C598.633 279.235 598.6 282.592 596.508 284.671 594.417 286.75 591.059 286.763 589.009 284.7 586.958 282.637 586.992 279.28 589.083 277.201 591.175 275.122 594.532 275.109 596.583 277.172Z"
        fill="#505050" />
      <path
        d="M642.578 286.347C637.943 289.722 640.524 302.005 648.362 318.724 652.39 323.159 656.675 327.66 661.183 332.167 691.066 362.05 720.666 382.225 732.355 381.439 732.364 381.438 732.367 381.432 732.363 381.424 726.196 370.244 718.301 357.851 709.098 345.212 680.898 306.485 651.117 280.13 642.578 286.347Z"
        fill="#D2D2D2" />
      <path
        d="M657 397.5C657 400.814 654.314 403.5 651 403.5 647.686 403.5 645 400.814 645 397.5 645 394.186 647.686 391.5 651 391.5 654.314 391.5 657 394.186 657 397.5Z"
        fill="#505050" />
      <path
        d="M672 405.5C672 408.814 669.314 411.5 666 411.5 662.686 411.5 660 408.814 660 405.5 660 402.186 662.686 399.5 666 399.5 669.314 399.5 672 402.186 672 405.5Z"
        fill="#505050" />
      <path
        d="M644 408.5C644 410.157 642.657 411.5 641 411.5 639.343 411.5 638 410.157 638 408.5 638 406.843 639.343 405.5 641 405.5 642.657 405.5 644 406.843 644 408.5Z"
        fill="#505050" />
      <path
        d="M682 413.5C682 415.157 680.657 416.5 679 416.5 677.343 416.5 676 415.157 676 413.5 676 411.843 677.343 410.5 679 410.5 680.657 410.5 682 411.843 682 413.5Z"
        fill="#505050" />
      <path
        d="M658 412.5C658 414.709 656.209 416.5 654 416.5 651.791 416.5 650 414.709 650 412.5 650 410.291 651.791 408.5 654 408.5 656.209 408.5 658 410.291 658 412.5Z"
        fill="#505050" />
      <path
        d="M662.029 433.569C662.029 435.778 660.238 437.569 658.029 437.569 655.82 437.569 654.029 435.778 654.029 433.569 654.029 431.36 655.82 429.569 658.029 429.569 660.238 429.569 662.029 431.36 662.029 433.569Z"
        fill="#505050" />
    </g> -->

    <text id="n0" x="0" y="0">0</text>
    <text id="n1" x="0" y="0">1</text>
    <text id="n2" x="0" y="0">2</text>
    <text id="n3" x="0" y="0">3</text>
    <text id="n4" x="0" y="0">4</text>
    <text id="n5" x="0" y="0">5</text>
    <text id="n6" x="0" y="0">6</text>
    <text id="n7" x="0" y="0">7</text>
    <text id="n8" x="0" y="0">8</text>
    <text id="n9" x="0" y="0">9</text>

    <text id="wonder" x="0" y="0">W o n d e r l a n d</text>
    <text id="banner" x="0" y="0" fill="white">The Number Line: numbers mystically merging into a continuum</text>
  </defs>

  <rect x="-150" y="-100" width="300" height="200" fill="#B3B3B3" />
  <circle cx="0" cy="420" r="400" fill="#C9C9C9" />
  <rect x="-150" y="80" width="300" height="20" fill="black" />

  <use href="#wonder" x="-60" y="-50" transform="scale(1.5)" />
  <use href="#mannikin" x="-150" y="-50" transform="scale(0.4) skewY(150)" />
  <use href="#wimmin" x="120" y="-30" transform="scale(0.4) skewY(30)" />
  <use href="#rabbit" x="1100" y="200" transform="scale(0.07)" />

  <use href="#n9" x="-140" y="-55" class="numbr fast" />
  <use href="#n9" x="-110" y="60" class="numbr slow" />
  <use href="#n6" x="-125" y="25" class="numbr slow" />
  <use href="#n1" x="40" y="25" class="numbr slow" />
  <use href="#n1" x="15" y="90" class="numbr slow" />
  <use href="#n9" x="-65" y="-80" class="numbr fast" />
  <use href="#n5" x="100" y="40" class="numbr fast" />
  <use href="#n3" x="0" y="90" class="numbr fast transp" />
  <use href="#n5" x="125" y="10" class="numbr slow" />
  <use href="#n1" x="45" y="-55" class="numbr slow" />
  <use href="#n6" x="-140" y="45" class="numbr slow" />
  <use href="#n5" x="75" y="20" class="numbr slow" />
  <use href="#n6" x="50" y="-45" class="numbr slow transp" />
  <use href="#n5" x="0" y="-70" class="numbr fast transp" />
  <use href="#n4" x="-5" y="-25" class="numbr slow transp" />
  <use href="#n3" x="-40" y="-5" class="numbr slow" />
  <use href="#n9" x="120" y="90" class="numbr slow" />
  <use href="#n3" x="-5" y="-40" class="numbr slow" />
  <use href="#n1" x="-115" y="-20" class="numbr slow transp" />
  <use href="#n7" x="-20" y="5" class="numbr fast" />
  <use href="#n7" x="-35" y="-40" class="numbr slow" />
  <use href="#n3" x="90" y="-15" class="numbr slow transp" />
  <use href="#n4" x="-55" y="-60" class="numbr slow transp" />
  <use href="#n7" x="50" y="25" class="numbr slow" />
  <use href="#n5" x="20" y="-45" class="numbr slow" />
  <use href="#n0" x="-100" y="-25" class="numbr slow transp" />
  <use href="#n8" x="140" y="-85" class="numbr slow transp" />
  <use href="#n5" x="85" y="65" class="numbr fast" />
  <use href="#n2" x="-85" y="80" class="numbr slow" />
  <use href="#n4" x="-10" y="-30" class="numbr slow transp" />
  <use href="#n5" x="-140" y="35" class="numbr fast transp" />
  <use href="#n7" x="75" y="-90" class="numbr slow" />
  <use href="#n3" x="110" y="-70" class="numbr fast" />
  <use href="#n5" x="95" y="-85" class="numbr slow transp" />
  <use href="#n4" x="95" y="-55" class="numbr slow" />
  <use href="#n5" x="-120" y="-30" class="numbr slow" />
  <use href="#n2" x="40" y="-30" class="numbr fast" />
  <use href="#n1" x="-90" y="-35" class="numbr fast" />
  <use href="#n0" x="15" y="-20" class="numbr slow transp" />
  <use href="#n4" x="-70" y="0" class="numbr slow" />

  <use href="#banner" x="-140" y="95" class="scroll" />

</svg>