<svg width="1207" height="1074"
    xmlns="http://www.w3.org/2000/svg"
    xmlns:xlink="http://www.w3.org/1999/xlink" xml:space="preserve" overflow="hidden">
    <g transform="translate(-1374 -545)">
        <path d="M1376.5 725.671C1376.5 627.27 1456.27 547.5 1554.67 547.5L2400.33 547.5C2498.73 547.5 2578.5 627.27 2578.5 725.671L2578.5 1438.33C2578.5 1536.73 2498.73 1616.5 2400.33 1616.5L1554.67 1616.5C1456.27 1616.5 1376.5 1536.73 1376.5 1438.33Z" stroke="#000000" stroke-width="4.58333" stroke-miterlimit="8" fill-rule="evenodd"/>
        <path d="M1807.5 1161C1807.5 1066.28 1884.28 989.5 1979 989.5 2073.72 989.5 2150.5 1066.28 2150.5 1161 2150.5 1255.72 2073.72 1332.5 1979 1332.5 1884.28 1332.5 1807.5 1255.72 1807.5 1161Z" stroke="#000000" stroke-width="6.875" stroke-miterlimit="8" fill="#FFFFFF" fill-rule="evenodd"/>
        <text font-family="Aptos,Aptos_MSFontService,sans-serif" font-weight="400" font-size="64" transform="matrix(1 0 0 1 1901.69 1164)">TRUE</text>
        <text fill="#FFFFFF" font-family="Aptos,Aptos_MSFontService,sans-serif" font-weight="400" font-size="64" transform="matrix(1 0 0 1 1842.81 738)">NOT TRUE</text>
        <text fill="#FFFFFF" font-family="Aptos,Aptos_MSFontService,sans-serif" font-weight="400" font-size="64" transform="matrix(1 0 0 1 1736.52 815)">also referred to as</text>
        <text fill="#FFFFFF" font-family="Aptos,Aptos_MSFontService,sans-serif" font-weight="400" font-size="64" transform="matrix(1 0 0 1 1897.97 892)">FALSE</text>
    </g>
</svg>