<svg viewBox="-150 -100 300 200" width="100%" height="100%" preserveAspectRatio="xMidYMid meet" xmlns="http://www.w3.org/2000/svg" xml:space="preserve" overflow="hidden">
  <style>
    #n0,
    #n1,
    #n2,
    #n3,
    #n4,
    #n5,
    #n6,
    #n7,
    #n8,
    #n9 {
      font-family: sans-serif;
      font-size: 12px;
      font-weight: bold;
      fill: black;
    }
    #wonder {
      font-family: sans-serif font-size: 20px;
      font-weight: bold;
      fill: transparent;
      stroke: ghostwhite;
      stroke-width: 0.5;
    }
    .numbr {
      animation-name: pouring;
      animation-duration: inherit;
      animation-iteration-count: infinite;
      animation-timing-function: linear;
    }
    .numbr.transp {
      opacity: 0.7;
    }
    .numbr.slow {
      animation-duration: 5s;
    }
    .numbr.fast {
      animation-duration: 3s;
    }
    .scroll {
      animation-name: scrolling;
      animation-duration: 5s;
      animation-iteration-count: infinite;
      animation-timing-function: linear;
      animation-direction: reverse;
    }
    .rabbit-stroke {
      stroke: none;
    }
    @keyframes pouring {
      from {
        transform: translateY(-150px);
      }
      to {
        transform: translateY(200px);
      }
    }
    @keyframes scrolling {
      from {
        transform: translate(-350px, 0px);
      }
      to {
        transform: translate(300px, 0px);
      }
    }
  </style>
  <defs>
    <!-- Rabbit shading -->
    <radialGradient id="shadeBody" cx="10%" cy="70%" r="100%">
      <stop offset="0%" stop-color="white" />
      <stop offset="40%" stop-color="white" />
      <stop offset="100%" stop-color="lightgray" />
    </radialGradient>
    <radialGradient id="shadeHead" cx="75%" cy="75%" r="100%">
      <stop offset="0%" stop-color="white" />
      <stop offset="40%" stop-color="white" />
      <stop offset="100%" stop-color="lightgray" />
    </radialGradient>
    <radialGradient id="shadeEar-l" cx="50%" cy="10%" r="100%">
      <stop offset="0%" stop-color="white" />
      <stop offset="40%" stop-color="white" />
      <stop offset="100%" stop-color="#dddddd" />
    </radialGradient>
    <radialGradient id="shadePaw-l" cx="50%" cy="90%" r="100%">
      <stop offset="0%" stop-color="white" />
      <stop offset="40%" stop-color="white" />
      <stop offset="100%" stop-color="lightgray" />
    </radialGradient>
    <g id="mannikin">
      <circle cx="0" cy="-50" r="30" fill="floralwhite" />
      <circle cx="-12" cy="-55" r="3" fill="black" />
      <circle cx="12" cy="-55" r="3" fill="black" />
      <rect x="-10" y="-40" width="20" height="5" rx="2" fill="none" stroke="black" stroke-width="2px" />
      <line x1="-40" y1="-10" x2="40" y2="-10" stroke="#545454" stroke-width="35px" stroke-linecap="round" />
      <line x1="-25" y1="50" x2="0" y2="-15" stroke="#545454" stroke-width="35px" stroke-linecap="round" />
      <line x1="25" y1="50" x2="0" y2="-15" stroke="#545454" stroke-width="35px" stroke-linecap="round" />
      <circle cx="0" cy="-10" r="5" fill="white" />
      <circle cx="0" cy="10" r="5" fill="white" />
    </g>
    <g id="wimmin">
      <circle cx="0" cy="-50" r="30" fill="floralwhite" />
      <circle cx="-12" cy="-55" r="3" fill="black" />
      <circle cx="12" cy="-55" r="3" fill="black" />
      <rect x="-10" y="-40" width="20" height="5" rx="2" fill="none" stroke="black" stroke-width="2px" />
      <line x1="-40" y1="-10" x2="40" y2="-10" stroke="#545454" stroke-width="35px" stroke-linecap="round" />
      <line x1="-25" y1="50" x2="0" y2="-15" stroke="#545454" stroke-width="35px" stroke-linecap="round" />
      <line x1="25" y1="50" x2="0" y2="-15" stroke="#545454" stroke-width="35px" stroke-linecap="round" />
      <circle cx="0" cy="35" r="35" fill="#545454" />
      <circle cx="0" cy="-10" r="5" fill="white" />
      <circle cx="0" cy="10" r="5" fill="white" />
    </g>
    <g id="rabbit" transform="translate(1100 200)" >
      <ellipse id="ear-r" rx="30" ry="180" cx="560" cy="220" fill="#dddddd" class="rabbit-stroke" transform="rotate(106 560 220)" />
      <ellipse id="tail" rx="35" ry="95" cx="595" cy="675" fill="#dddddd" class="rabbit-stroke" transform="rotate(70 595 675)" />
      <ellipse id="paw-r" rx="45" ry="90" cx="300" cy="680" fill="white" class="rabbit-stroke" transform="rotate(70 300 680)" />
      <ellipse id="body" rx="240" ry="155" cx="370" cy="515" transform="rotate(51 370 515)" fill="url(#shadeBody)" class="rabbit-stroke" />
      <ellipse id="head" rx="170" ry="95" cx="270" cy="245" transform="rotate(168 270 245)" fill="url(#shadeHead)" class="rabbit-stroke" />
      <ellipse id="ear-l" rx="50" ry="185" cx="550" cy="350" fill="url(#shadeEar-l)" class="rabbit-stroke" transform="rotate(137 550 350)" />
      <ellipse id="paw-l" rx="45" ry="90" cx="365" cy="690" fill="url(#shadePaw-l)" class="rabbit-stroke" transform="rotate(74 365 690)" />
      <circle id="I" r="35" cx="275" cy="225" fill="white" stroke="black" />
      <circle id="J" r="15" cx="115" cy="260" fill="black" class="rabbit-stroke" />
      <circle id="K" r="15" cx="295" cy="225" fill="black" class="rabbit-stroke" />
      <text x="110" y="290" fill="gray" stroke="gray" font-size="60" font-family="sans-serif" rotate="70">Y</text>            
    </g>
    <text id="n0" x="0" y="0">0</text>
    <text id="n1" x="0" y="0">1</text>
    <text id="n2" x="0" y="0">2</text>
    <text id="n3" x="0" y="0">3</text>
    <text id="n4" x="0" y="0">4</text>
    <text id="n5" x="0" y="0">5</text>
    <text id="n6" x="0" y="0">6</text>
    <text id="n7" x="0" y="0">7</text>
    <text id="n8" x="0" y="0">8</text>
    <text id="n9" x="0" y="0">9</text>
    <text id="wonder" x="0" y="0">W o n d e r l a n d</text>
    <text id="banner" x="0" y="0" fill="white">The Number Line: numbers mystically merging into a continuum</text>
  </defs>
  <rect x="-150" y="-100" width="300" height="200" fill="#B3B3B3" />
  <circle cx="0" cy="420" r="400" fill="#C9C9C9" />
  <rect x="-150" y="80" width="300" height="20" fill="black" />
  <use href="#wonder" x="-70" y="-50" transform="scale(1.5)" />
  <use href="#mannikin" x="-150" y="-50" transform="scale(0.4) skewY(150)" />
  <use href="#wimmin" x="120" y="-30" transform="scale(0.4) skewY(30)" />
  <use href="#rabbit" x="150" y="-50" transform="scale(0.07)" />
  <use href="#n9" x="-140" y="-55" class="numbr fast" />
  <use href="#n9" x="-110" y="60" class="numbr slow" />
  <use href="#n6" x="-125" y="25" class="numbr slow" />
  <use href="#n1" x="40" y="25" class="numbr slow" />
  <use href="#n1" x="15" y="90" class="numbr slow" />
  <use href="#n9" x="-65" y="-80" class="numbr fast" />
  <use href="#n5" x="100" y="40" class="numbr fast" />
  <use href="#n3" x="0" y="90" class="numbr fast transp" />
  <use href="#n5" x="125" y="10" class="numbr slow" />
  <use href="#n1" x="45" y="-55" class="numbr slow" />
  <use href="#n6" x="-140" y="45" class="numbr slow" />
  <use href="#n5" x="75" y="20" class="numbr slow" />
  <use href="#n6" x="50" y="-45" class="numbr slow transp" />
  <use href="#n5" x="0" y="-70" class="numbr fast transp" />
  <use href="#n4" x="-5" y="-25" class="numbr slow transp" />
  <use href="#n3" x="-40" y="-5" class="numbr slow" />
  <use href="#n9" x="120" y="90" class="numbr slow" />
  <use href="#n3" x="-5" y="-40" class="numbr slow" />
  <use href="#n1" x="-115" y="-20" class="numbr slow transp" />
  <use href="#n7" x="-20" y="5" class="numbr fast" />
  <use href="#n7" x="-35" y="-40" class="numbr slow" />
  <use href="#n3" x="90" y="-15" class="numbr slow transp" />
  <use href="#n4" x="-55" y="-60" class="numbr slow transp" />
  <use href="#n7" x="50" y="25" class="numbr slow" />
  <use href="#n5" x="20" y="-45" class="numbr slow" />
  <use href="#n0" x="-100" y="-25" class="numbr slow transp" />
  <use href="#n8" x="140" y="-85" class="numbr slow transp" />
  <use href="#n5" x="85" y="65" class="numbr fast" />
  <use href="#n2" x="-85" y="80" class="numbr slow" />
  <use href="#n4" x="-10" y="-30" class="numbr slow transp" />
  <use href="#n5" x="-140" y="35" class="numbr fast transp" />
  <use href="#n7" x="75" y="-90" class="numbr slow" />
  <use href="#n3" x="110" y="-70" class="numbr fast" />
  <use href="#n5" x="95" y="-85" class="numbr slow transp" />
  <use href="#n4" x="95" y="-55" class="numbr slow" />
  <use href="#n5" x="-120" y="-30" class="numbr slow" />
  <use href="#n2" x="40" y="-30" class="numbr fast" />
  <use href="#n1" x="-90" y="-35" class="numbr fast" />
  <use href="#n0" x="15" y="-20" class="numbr slow transp" />
  <use href="#n4" x="-70" y="0" class="numbr slow" />
  <use href="#banner" x="-140" y="95" class="scroll" />
</svg>