<svg width="1001" height="788"
    xmlns="http://www.w3.org/2000/svg"
    xmlns:xlink="http://www.w3.org/1999/xlink" xml:space="preserve" overflow="hidden">
    <g transform="translate(-254 -252)">
        <rect x="415.5" y="451.5" width="462" height="411" stroke="#000000" stroke-width="6.875" stroke-miterlimit="8" stroke-dasharray="6.875 6.875" fill="none"/>
        <path d="M3.4375-1.63711e-06 3.43785 734.861-3.43715 734.861-3.4375 1.63711e-06ZM13.7503 730.278 0.000360892 757.778-13.7497 730.278Z" transform="matrix(1 0 0 -1 416.5 1039.28)"/>
        <path d="M254.5 859.062 1114.64 859.063 1114.64 865.938 254.5 865.937ZM1110.06 848.75 1137.56 862.5 1110.06 876.25Z"/>
        <text font-family="Aptos,Aptos_MSFontService,sans-serif" font-weight="400" font-size="83" transform="matrix(1 0 0 1 359.944 933)">0</text>
        <path d="M375.437 293.946 375.437 342.133 382.245 342.133 382.245 293.946ZM366.197 290.38 391.526 290.38 391.526 292.366C390.094 292.717 389.074 293.109 388.466 293.541 387.858 293.973 387.426 294.642 387.169 295.547 386.913 296.452 386.784 298.107 386.784 300.512L386.784 335.568C386.784 337.756 386.886 339.316 387.088 340.249 387.291 341.181 387.696 341.89 388.304 342.376 388.912 342.863 389.986 343.308 391.526 343.714L391.526 345.7 366.197 345.7 366.197 343.714C367.872 343.281 368.993 342.802 369.56 342.275 370.128 341.748 370.499 340.998 370.675 340.026 370.85 339.053 370.938 337.567 370.938 335.568L370.938 300.512C370.938 298.647 370.871 297.29 370.736 296.439 370.601 295.587 370.378 294.926 370.067 294.453 369.756 293.98 369.344 293.602 368.831 293.318 368.318 293.034 367.439 292.717 366.197 292.366Z" fill-rule="evenodd"/>
        <text fill="#000000" fill-opacity="0" font-family="Arial,Arial_MSFontService,sans-serif" font-size="55.3198" x="366.197" y="338.785">𝕀</text>
        <path d="M1099.1 900.021C1097.24 900.021 1095.98 900.048 1095.33 900.102L1095.33 923.567 1098.62 923.567C1100.94 923.567 1102.78 923.067 1104.13 922.067 1105.48 921.068 1106.42 919.697 1106.96 917.954 1107.5 916.211 1107.77 914.056 1107.77 911.49 1107.77 907.626 1107.05 904.749 1105.61 902.857 1104.16 900.966 1101.99 900.021 1099.1 900.021ZM1084.03 899.453 1084.03 947.64 1090.83 947.64 1090.83 899.453ZM1105.75 898.643 1105.55 899.048C1107.92 900.507 1109.64 902.277 1110.69 904.357 1111.75 906.437 1112.27 908.883 1112.27 911.692 1112.27 915.61 1111.48 918.69 1109.9 920.933 1108.32 923.175 1105.78 924.823 1102.26 925.877L1102.26 926.363C1102.91 926.796 1103.49 927.289 1104.01 927.843 1104.52 928.396 1104.99 929.018 1105.42 929.707 1105.86 930.396 1106.48 931.51 1107.29 933.05L1112.07 942.169C1112.64 943.304 1113.19 944.357 1113.73 945.33 1114.27 946.303 1114.73 947.073 1115.11 947.64L1123.17 947.64 1123.17 947.235C1122.63 946.695 1122.04 945.918 1121.39 944.905 1120.74 943.891 1120.22 942.993 1119.81 942.209L1115.96 934.874C1114.69 932.469 1113.41 930.578 1112.11 929.2 1110.81 927.822 1109.18 926.782 1107.21 926.08L1107.21 924.742C1115.45 922.5 1119.57 917.853 1119.57 910.801 1119.57 907.424 1118.41 904.708 1116.08 902.655 1113.76 900.601 1110.31 899.264 1105.75 898.643ZM1074.79 895.887 1101.94 895.887C1107.45 895.887 1111.77 896.447 1114.91 897.569 1118.04 898.69 1120.39 900.352 1121.94 902.553 1123.49 904.755 1124.27 907.505 1124.27 910.801 1124.27 917.528 1120.66 922.473 1113.45 925.634L1113.45 926.039C1114.83 926.769 1116.07 927.795 1117.18 929.119 1118.28 930.443 1119.59 932.483 1121.11 935.239L1124.11 940.75C1124.81 942.02 1125.43 943.101 1125.97 943.993 1126.51 944.884 1127.08 945.695 1127.67 946.424 1128.27 947.154 1128.88 947.735 1129.5 948.167 1130.12 948.599 1130.85 948.951 1131.69 949.221L1131.69 951.207 1111.99 951.207C1111.61 950.693 1111.22 950.092 1110.81 949.403 1110.41 948.714 1109.81 947.627 1109.03 946.141L1103.07 934.631C1102.48 933.523 1101.86 932.375 1101.23 931.186 1100.59 929.997 1100.07 929.18 1099.65 928.734 1099.23 928.288 1098.78 927.971 1098.31 927.782 1097.84 927.593 1097.09 927.498 1096.06 927.498L1095.33 927.498 1095.33 940.953C1095.33 942.898 1095.41 944.31 1095.56 945.188 1095.7 946.066 1095.93 946.728 1096.22 947.174 1096.52 947.62 1096.93 947.991 1097.46 948.289 1097.99 948.586 1098.86 948.896 1100.07 949.221L1100.07 951.207 1074.79 951.207 1074.79 949.221C1076.46 948.788 1077.58 948.309 1078.15 947.782 1078.72 947.255 1079.09 946.505 1079.26 945.533 1079.44 944.56 1079.53 943.074 1079.53 941.075L1079.53 906.019C1079.53 904.154 1079.46 902.797 1079.32 901.946 1079.19 901.094 1078.97 900.433 1078.66 899.96 1078.34 899.487 1077.93 899.109 1077.42 898.825 1076.91 898.541 1076.03 898.224 1074.79 897.873Z" fill-rule="evenodd"/>
        <text fill="#000000" fill-opacity="0" font-family="Arial,Arial_MSFontService,sans-serif" font-size="55.3198" x="1074.79" y="944.292">ℝ</text>
        <path d="M2.28703-2.5663 447.196 393.928 442.622 399.06-2.28703 2.5663ZM450.635 383.18 462.017 411.741 432.339 403.71Z" transform="matrix(1 0 0 -1 412.5 862.241)"/>
        <text font-family="Aptos,Aptos_MSFontService,sans-serif" font-weight="400" font-size="83" transform="matrix(1 0 0 1 849.145 916)">a</text>
        <text font-family="Aptos,Aptos_MSFontService,sans-serif" font-weight="400" font-size="83" transform="matrix(1 0 0 1 360.386 469)">b</text>
        <text font-family="Aptos,Aptos_MSFontService,sans-serif" font-weight="400" font-size="83" transform="matrix(1 0 0 1 904.74 477)">z = a + b</text>
        <text font-family="Aptos,Aptos_MSFontService,sans-serif" font-style="italic" font-weight="400" font-size="83" transform="matrix(1 0 0 1 1220 477)">i</text>
        
    </g>
</svg>