<svg width="570" height="470" x="0" y="0" class="backdrop" xmlns="http://www.w3.org/2000/svg" xml:space="preserve" overflow="hidden">
  <style>
    text {
      font-family: 'Courier New', Courier, monospace
      fill: black;
    }
    .backdrop {
      background-color: #D9DCE2;
    }
    .rising {
      animation: raise-cone 6500ms linear infinite forwards;
    }
    @keyframes raise-cone {
      0% {
        transform: translateY(130px);
        }
      100% {
        transform: translateY(0px);
        }
      }
    .growing {
      animation: grow-circle 6500ms linear infinite forwards;
    }
    @keyframes grow-circle {
      0% {
        transform: translate(285px, 85px) scale(0,0);
        }
      5% {
        transform: translate(285px, 85px) scale(0,0);
        }
      100% {
        transform: translate(220px, 20px) scale(1,1);
        }
      }
    .expanding {
      animation: expand-line 6500ms linear infinite forwards;
    }
    @keyframes expand-line {
      0% {
        transform: translate(470px, 305px) scale(0,1);
        }
      5% {
        transform: translate(470px, 305px) scale(0,1);
        }
      100% {
        transform: translate(405px, 305px) scale(1,1);
        }
      }
  </style>
  <defs>
    <radialGradient id="coneshade" cx="30%" cy="10%" r="100%">
      <stop offset="0%" stop-color="white" />
      <stop offset="60%" stop-color="dodgerblue" />
      <stop offset="100%" stop-color="dodgerblue" />
    </radialGradient>
    <radialGradient id="circleshade" cx="40%" cy="50%" r="100%">
      <stop offset="0%" stop-color="#BCFCFF" />
      <stop offset="50%" stop-color="dodgerblue" />
      <stop offset="100%" stop-color="dodgerblue" />
    </radialGradient>
    <linearGradient id="lineshade" x1="0%" x2="100%" y1="0%" y2="0%">
      <stop offset="0%" stop-color="lightblue" />
      <stop offset="50%" stop-color="dodgerblue" />
      <stop offset="100%" stop-color="lightblue" />
    </linearGradient>
    <pattern id="conebottom" x="0" y="0" width="2" height="2" patternUnits="userSpaceOnUse">
      <rect width="2" height="2" />
      <circle cx="1" cy="1" r="1" fill="gray" />
    </pattern>
    <clipPath id="cut-cone">
      <path d="M 65 0 L 0 84 A 65 32 0 0 0 130 84 Z" />
    </clipPath>
    <path id="plane" d="M 0 0 h 20 A 65 32 0 0 0 150 0 h 20 v 170 h -170 Z" fill="#D9DCE2"  fill-opacity="0.8" />
    <circle id="topview" r="65" cx="65" cy="65" stroke="blue" stroke-width="1" fill="url(#circleshade)" />
    <rect id="lineview" width="130" height="4" x="0" y="0" fill="url(#lineshade)" />
    <marker id="arrowhead" markerWidth="10" markerHeight="7" refX="10" refY="3" orient="auto">
      <polygon points="0,0 10,3 0,6" fill="black" />
    </marker>
    <g id="cone">
      <ellipse rx="65" ry="32" cx="65" cy="90" stroke="blue" fill="url(#conebottom)" fill-opacity="0.5" clip-path="url(#cut-cone)" />
      <path d="M 65 0 L 0 84 A 65 32 0 0 0 130 84 Z" stroke="blue" fill="url(#coneshade)" fill-opacity="0.7" />
    </g>
    <g id="eye">
      <path d="M 100 55 A 100 120 270 0 1 11 0" stroke="black" stroke-width="2" fill="none" />
      <path d="M 100 55 A 100 120 270 0 0 11 110" stroke="black" stroke-width="2" fill="none" />
      <path d="M 21 15 A 50 50 0 0 0 21 96" stroke="black" stroke-width="2" fill="none" />
      <ellipse rx="8" ry="25" cx="9" cy="56" />
    </g>
    <g id="refA">
      <rect width="200" height="280" x="0" y="190" fill="white" />
      <text x="10" y="240">
        <tspan font-weight="bold">Reference A.:</tspan>
        <tspan x="10" dy="15">Imagine an Observer</tspan>
        <tspan x="10" dy="15">viewing this process </tspan>
        <tspan x="10" dy="15">from a 4th spatial </tspan>
        <tspan x="10" dy="15">dimension. The Obser-</tspan>
        <tspan x="10" dy="15">ver sees a spatially 3-</tspan>
        <tspan x="10" dy="15">dimensional cone in a</tspan>
        <tspan x="10" dy="15">3-dimensional world</tspan>
        <tspan x="10" dy="15">penetrating through a</tspan>
        <tspan x="10" dy="15">2-dimensional world</tspan>
        <tspan x="10" dy="15">from below and emerging</tspan>
        <tspan x="10" dy="15">above.</tspan>
      </text>
      <use href="#eye" x="100"  y="100" transform="rotate(145 50 270) scale(0.4, 0.4)" />
    </g>
    <g id="refB">
      <rect width="200" height="190" x="0" y="0" fill="white" />
      <rect width="200" height="190" x="370" y="0" fill="white" />
      <text x="10" y="20">
        <tspan font-weight="bold">Reference B.:</tspan>
        <tspan x="10" dy="15">Imagine an Observer</tspan>
        <tspan x="10" dy="15">looking down onto a</tspan>
        <tspan x="10" dy="15">spatially 2-dimensional</tspan>
        <tspan x="10" dy="15">world from a 3rd</tspan>
        <tspan x="10" dy="15">spatial dimension.</tspan>
      </text>
      <text x="380" y="20">
        <tspan font-weight="bold">Reference B.:</tspan>
        <tspan x="380" dy="15">The phenomenon of</tspan>
        <tspan x="380" dy="15">a spatially 3-dimension-</tspan>
        <tspan x="380" dy="15">al cone passing from</tspan>
        <tspan x="380" dy="15">below through a</tspan>
        <tspan x="380" dy="15">2-dimensional world,</tspan>
        <tspan x="380" dy="15">as seen by an</tspan>
        <tspan x="380" dy="15">Imaginary Observer</tspan>
        <tspan x="380" dy="15">looking down onto</tspan>
        <tspan x="380" dy="15">the 2-dimensional</tspan>
        <tspan x="380" dy="15">world from a 3rd</tspan>
        <tspan x="380" dy="15">spatial dimension.</tspan>
      </text>
      <use href="#eye" x="0"  y="0" transform="rotate(240 120 30) scale(0.4, 0.4)" />
    </g>
    <g id="refC">
      <rect width="200" height="140" x="370" y="330" fill="white" />
      <text x="380" y="380">
        <tspan font-weight="bold">Reference C.:</tspan>
        <tspan x="380" dy="15">The same phenomenon</tspan>
        <tspan x="380" dy="15">as in Reference A,</tspan>
        <tspan x="380" dy="15">as seen by an Imaginary</tspan>
        <tspan x="380" dy="15">Observer residing within</tspan>
        <tspan x="380" dy="15">the 2-dimensionl world.</tspan>
      </text>
      <use href="#eye" x="340"  y="600" transform="rotate(90 250 490) scale(0.3, 0.3)" />
      <use href="#eye" x="1300" y="1110" transform="scale(0.3, 0.3)" />
      <line x1="0" y1="0" x2="0" y2="0" stroke="" stroke-width="1" fill="" fill-opacity="1" />      
    </g>
  </defs>

  <use href="#cone" x="220" y="220" class="rising" />
  <use href="#plane" x="200" y="305" />
  <use href="#topview" x="0" y="0" class="growing" />
  <use href="#lineview" x="0" y="0" class="expanding" />
  <use href="#refA" />
  <use href="#refB" />
  <use href="#refC" />
  <line x1="0" y1="191" x2="600" y2="191" stroke="black" stroke-width="2" fill="" fill-opacity="1" />
  <line x1="430" y1="350" x2="520" y2="350" stroke="black" stroke-width="1" marker-end="url(#arrowhead)" />

</svg>